<svg width="90" height="24" viewBox="0 0 90 24" fill="none" xmlns="http://www.w3.org/2000/svg">
  <rect width="90" height="24" rx="6" fill="#0F766E"/>
  <path d="M14 7H21V9H16.5V11H20.5V13H16.5V17H14V7Z" fill="white"/>
  <path d="M24 17V7H28.2C30.4 7 31.8 8.1 31.8 10C31.8 11.2 31.2 12 30.2 12.4L32.2 17H29.5L27.8 12.9H26.5V17H24ZM26.5 10.9H28C28.9 10.9 29.3 10.5 29.3 9.9C29.3 9.2 28.9 8.9 28 8.9H26.5V10.9Z" fill="white"/>
  <path d="M37.5 17.2C35.1 17.2 33.4 15.5 33.4 13C33.4 10.5 35.1 8.8 37.5 8.8C39.9 8.8 41.6 10.5 41.6 13C41.6 15.5 39.9 17.2 37.5 17.2ZM37.5 15.2C38.5 15.2 39.2 14.4 39.2 13C39.2 11.6 38.5 10.8 37.5 10.8C36.5 10.8 35.8 11.6 35.8 13C35.8 14.4 36.5 15.2 37.5 15.2Z" fill="white"/>
  <path d="M45.1 17L42.2 9H44.6L46.2 14.1L47.9 9H50.2L47.2 17H45.1Z" fill="white"/>
  <path d="M53.2 17.2C51.4 17.2 50.1 16.1 50.1 14.6C50.1 13.1 51.2 12.2 53.7 11.9L55.3 11.7V11.5C55.3 10.8 54.8 10.4 54 10.4C53.1 10.4 52.6 10.8 52.4 11.4L50.3 11.1C50.6 9.7 51.9 8.8 54.1 8.8C56.3 8.8 57.6 9.9 57.6 11.8V17H55.4L55.3 15.9C54.8 16.7 54.1 17.2 53.2 17.2ZM53.9 15.5C54.7 15.5 55.3 14.9 55.3 14V13.3L54.2 13.4C53.2 13.5 52.6 13.8 52.6 14.4C52.6 15 53.1 15.5 53.9 15.5Z" fill="white"/>
  <path d="M61.8 20V16.1L58.8 9H61.4L63 13.4L64.7 9H67.2L64.2 16V20H61.8Z" fill="white"/>
  <circle cx="74" cy="12" r="3" fill="#FDE68A"/>
  <path d="M78.5 9.5H82.5V11H80V12.2H82.2V13.7H80V16H78.5V9.5Z" fill="white"/>
</svg>
